<?xml version="1.0" encoding="utf-8"?>
<!-- Generator: Adobe Illustrator 18.1.1, SVG Export Plug-In . SVG Version: 6.00 Build 0)  -->
<!DOCTYPE svg PUBLIC "-//W3C//DTD SVG 1.1//EN" "http://www.w3.org/Graphics/SVG/1.1/DTD/svg11.dtd">
<svg version="1.1" id="Capa_1" xmlns="http://www.w3.org/2000/svg" xmlns:xlink="http://www.w3.org/1999/xlink" x="0px" y="0px"
	 viewBox="0 0 456 538.5" enable-background="new 0 0 456 538.5" xml:space="preserve">
<path fill="#CDCCCC" d="M65.4,65.4v464h382v-464H65.4z M418.4,494.4h-321v-398h321V494.4z"/>
<polygon fill="#CDCCCC" points="40.4,39.6 325.4,39.6 361.4,39.6 416.4,39.6 416.4,8.6 8.4,8.6 8.4,495.6 40.4,495.6 "/>
<g id="Edit">
	<g>
		<path fill="#CDCCCC" d="M282.3,220.6c-6.4-6.4-16.7-6.4-23.1,0l-5.8,5.8l-80.9,80.9l0,0l-2.5,2.6c0,0-8.1,8.2-26.5,67.4
			c-0.1,0.4-0.3,0.8-0.4,1.2c-0.3,1.1-0.7,2.1-1,3.2c-0.3,1-0.6,2-0.9,2.9c-0.3,0.8-0.5,1.7-0.8,2.5c-0.6,1.9-1.2,3.9-1.8,6
			c-1.3,4.5-4.5,14.6-0.9,18.2c3.5,3.5,13.7,0.4,18.2-0.9c2-0.6,4-1.2,5.9-1.8c0.9-0.3,1.8-0.5,2.6-0.8c0.9-0.3,1.9-0.6,2.8-0.8
			c1.1-0.4,2.3-0.7,3.4-1c0.3-0.1,0.7-0.2,1-0.3c56.3-17.5,66.5-25.8,67.3-26.5c0,0,0,0,0,0c0,0,0.1-0.1,0.1-0.1l2.6-2.6l0.2,0.2
			l80.9-80.9l0,0l5.8-5.8c6.4-6.4,6.4-16.7,0-23.1L282.3,220.6z M229.8,368.7c-0.1,0-0.2,0.1-0.3,0.2c-0.1,0-0.1,0.1-0.2,0.1
			c-0.1,0-0.1,0.1-0.2,0.1c-0.1,0-0.1,0.1-0.2,0.1c-2.7,1.6-10.6,5.8-29.7,12.7c-2.2,0.8-4.7,1.7-7.2,2.6l-27.2-27.3
			c0.9-2.6,1.7-5,2.6-7.3c6.9-19.2,11.1-27.2,12.7-29.8c0-0.1,0.1-0.1,0.1-0.2c0.1-0.1,0.1-0.2,0.2-0.3c0-0.1,0.1-0.1,0.1-0.2
			c0.1-0.1,0.1-0.2,0.2-0.3l2-2l49.4,49.4L229.8,368.7z M374.7,220.6l-46.2-46.3c-6.4-6.4-16.7-6.4-23.1,0l-11.6,11.6
			c-6.4,6.4-6.4,16.7,0,23.1l46.2,46.3c6.4,6.4,16.7,6.4,23.1,0l11.6-11.6C381.1,237.3,381.1,227,374.7,220.6z"/>
	</g>
</g>
</svg>
