<?xml version="1.0" encoding="utf-8"?>
<!-- Generator: Adobe Illustrator 18.1.1, SVG Export Plug-In . SVG Version: 6.00 Build 0)  -->
<!DOCTYPE svg PUBLIC "-//W3C//DTD SVG 1.1//EN" "http://www.w3.org/Graphics/SVG/1.1/DTD/svg11.dtd">
<svg version="1.1" id="Capa_1" xmlns="http://www.w3.org/2000/svg" xmlns:xlink="http://www.w3.org/1999/xlink" x="0px" y="0px"
	 viewBox="0 95 604 599" enable-background="new 0 95 604 599" xml:space="preserve">
<path fill="#CC0000" d="M14.9,396c0-161,130.5-291.4,291.4-291.4c94.7,0,178.9,45.2,232.1,115.2L420.5,337.7
	c-21.2-41.6-64.4-70-114.3-70C235.4,267.7,178,325.1,178,396s57.4,128.3,128.3,128.3c49.9,0,93.1-28.5,114.3-70l117.9,117.8
	c-53.2,70-137.4,115.2-232.1,115.2C145.3,687.4,14.9,557,14.9,396z"/>
<path fill="#222221" d="M212.3,429h18l2.1-21.8c0.2-2,0.4-4.2,0.5-6.2h0.6c0.1,2.1,0.6,4.2,1.2,6.4l6.7,21.7h10.9l7.4-23
	c0.6-1.7,0.9-3.4,1.2-5.1h0.4l2.5,28h18l-8.4-51.2h-18.9l-5.8,20.1c-0.6,2.1-1,4.5-1.3,6.8h-0.5l-7-26.9h-19.2L212.3,429z"/>
<path fill="#222221" d="M316.5,377.8v28.5c0,4-0.1,7.5-5.1,7.5s-5.1-3.5-5.1-7.5v-28.5h-18.7v30.3c0,14.9,9.4,21.7,23.7,21.7
	S335,423,335,408.1v-30.3H316.5L316.5,377.8z"/>
<polygon fill="#222221" points="343.3,429 377.5,429 377.5,412.6 361.9,412.6 361.9,377.8 343.3,377.8 "/>
<polygon fill="#222221" points="377,394.5 387.3,394 387.3,429 405.9,429 405.9,394 416.1,394.5 416.1,377.8 377,377.8 "/>
<rect x="421.1" y="377.8" fill="#222221" width="18.6" height="51.2"/>
<path fill="#CC0000" d="M473.3,416.3c-1.5,0.3-3.7,1-6.2,1c-3.5,0-5.8-3.1-5.8-8.1c0-10.5,6.1-18.5,12.3-18.5c1,0,2.3,0.2,3.7,0.5
	l3.7-12.3c-1.3-0.5-3.5-0.9-7-0.9c-15.4,0-27.8,14-27.8,33.5c0,9,5,18.1,16.6,18.1c4.5,0,8-0.8,9.3-1.3L473.3,416.3z"/>
<path fill="#CC0000" d="M517.4,429c0-5.4,0.9-15.7,2-21.2l5.5-27.7c-3.5-1.2-9.2-2.3-14.9-2.3c-22.5,0-29.9,21.3-29.9,36.5
	c0,8.7,3.5,15.4,11.6,15.4c4.1,0,9.1-2.9,12.7-8.8h0.4c-0.1,2.6-0.2,5.3-0.3,8L517.4,429L517.4,429z M505.3,404.8
	c-1.7,8.8-4.2,12.7-6.9,12.7c-3.1,0-3.5-3-3.5-6.5c0-5.8,3.7-22,11-22c0.5,0,1.5,0.1,2.4,0.3L505.3,404.8z"/>
<path fill="#CC0000" d="M535.1,378.7l-8.9,46.8c-2,10-4.4,12.4-8.4,12.4c-0.8,0-1.5-0.1-2.4-0.2l-1.5,11.1c2.1,0.4,4,0.6,6.1,0.6
	c7.7,0,13.3-3.2,16-8c2-3.4,3.6-7.9,5.4-17.4l8.7-45.4h-15V378.7z M544.4,373.5c4.3,0,8.3-3.2,8.3-9.1c0-3.9-2.1-7.5-7-7.5
	c-5.2,0-8.1,4.9-8.1,9C537.6,370.1,539.6,373.5,544.4,373.5L544.4,373.5z"/>
<path fill="#CC0000" d="M589.6,429c0-5.4,0.9-15.7,2-21.2l5.5-27.7c-3.6-1.2-9.2-2.3-14.9-2.3c-22.5,0-29.8,21.3-29.8,36.5
	c0,8.7,3.6,15.4,11.6,15.4c4.1,0,9.1-2.9,12.6-8.8h0.4c-0.1,2.6-0.2,5.3-0.3,8L589.6,429L589.6,429z M577.5,404.8
	c-1.7,8.8-4.2,12.7-6.9,12.7c-3.1,0-3.5-3-3.5-6.5c0-5.8,3.8-22,11-22c0.5,0,1.4,0.1,2.4,0.3L577.5,404.8z"/>
</svg>
